<mxfile host="app.diagrams.net" modified="2021-10-12T10:34:23.925Z" agent="5.0 (Windows NT 10.0; Win64; x64) AppleWebKit/537.36 (KHTML, like Gecko) Chrome/94.0.4606.71 Safari/537.36" etag="dNpUL51dW3jhaJmf1oag" version="15.4.3" type="github">
  <diagram id="RN4f2PH-Jv0CZg3PX_7Q" name="Page-1">
    <mxGraphModel dx="1483" dy="781" grid="1" gridSize="10" guides="1" tooltips="1" connect="1" arrows="1" fold="1" page="1" pageScale="1" pageWidth="827" pageHeight="1169" math="0" shadow="0">
      <root>
        <mxCell id="0" />
        <mxCell id="1" parent="0" />
        <mxCell id="ois-6ZQoZL2LTssRpP57-1" value="" style="ellipse;html=1;shape=startState;fillColor=#000000;strokeColor=#ff0000;" vertex="1" parent="1">
          <mxGeometry x="400" y="10" width="30" height="30" as="geometry" />
        </mxCell>
        <mxCell id="ois-6ZQoZL2LTssRpP57-2" value="" style="html=1;verticalAlign=bottom;endArrow=open;endSize=8;strokeColor=#ff0000;rounded=0;" edge="1" source="ois-6ZQoZL2LTssRpP57-1" parent="1">
          <mxGeometry relative="1" as="geometry">
            <mxPoint x="415" y="70" as="targetPoint" />
          </mxGeometry>
        </mxCell>
        <mxCell id="ois-6ZQoZL2LTssRpP57-22" style="edgeStyle=none;rounded=0;orthogonalLoop=1;jettySize=auto;html=1;exitX=0.5;exitY=1;exitDx=0;exitDy=0;entryX=0.114;entryY=0.58;entryDx=0;entryDy=0;entryPerimeter=0;" edge="1" parent="1" source="ois-6ZQoZL2LTssRpP57-6" target="ois-6ZQoZL2LTssRpP57-21">
          <mxGeometry relative="1" as="geometry" />
        </mxCell>
        <mxCell id="ois-6ZQoZL2LTssRpP57-6" value="Search By ISBN" style="rounded=1;whiteSpace=wrap;html=1;" vertex="1" parent="1">
          <mxGeometry x="149" y="230" width="120" height="60" as="geometry" />
        </mxCell>
        <mxCell id="ois-6ZQoZL2LTssRpP57-23" style="edgeStyle=none;rounded=0;orthogonalLoop=1;jettySize=auto;html=1;exitX=0.5;exitY=1;exitDx=0;exitDy=0;entryX=0.355;entryY=0.58;entryDx=0;entryDy=0;entryPerimeter=0;" edge="1" parent="1" source="ois-6ZQoZL2LTssRpP57-7" target="ois-6ZQoZL2LTssRpP57-21">
          <mxGeometry relative="1" as="geometry" />
        </mxCell>
        <mxCell id="ois-6ZQoZL2LTssRpP57-7" value="Search By Title" style="rounded=1;whiteSpace=wrap;html=1;" vertex="1" parent="1">
          <mxGeometry x="279" y="230" width="120" height="60" as="geometry" />
        </mxCell>
        <mxCell id="ois-6ZQoZL2LTssRpP57-24" style="edgeStyle=none;rounded=0;orthogonalLoop=1;jettySize=auto;html=1;exitX=0.5;exitY=1;exitDx=0;exitDy=0;entryX=0.645;entryY=0.58;entryDx=0;entryDy=0;entryPerimeter=0;" edge="1" parent="1" source="ois-6ZQoZL2LTssRpP57-8" target="ois-6ZQoZL2LTssRpP57-21">
          <mxGeometry relative="1" as="geometry" />
        </mxCell>
        <mxCell id="ois-6ZQoZL2LTssRpP57-8" value="Search By Author" style="rounded=1;whiteSpace=wrap;html=1;" vertex="1" parent="1">
          <mxGeometry x="429" y="230" width="120" height="60" as="geometry" />
        </mxCell>
        <mxCell id="ois-6ZQoZL2LTssRpP57-25" style="edgeStyle=none;rounded=0;orthogonalLoop=1;jettySize=auto;html=1;exitX=0.5;exitY=1;exitDx=0;exitDy=0;entryX=0.891;entryY=0.42;entryDx=0;entryDy=0;entryPerimeter=0;" edge="1" parent="1" source="ois-6ZQoZL2LTssRpP57-9" target="ois-6ZQoZL2LTssRpP57-21">
          <mxGeometry relative="1" as="geometry" />
        </mxCell>
        <mxCell id="ois-6ZQoZL2LTssRpP57-9" value="Search By Keywords" style="rounded=1;whiteSpace=wrap;html=1;" vertex="1" parent="1">
          <mxGeometry x="559" y="230" width="120" height="60" as="geometry" />
        </mxCell>
        <mxCell id="ois-6ZQoZL2LTssRpP57-20" style="edgeStyle=none;rounded=0;orthogonalLoop=1;jettySize=auto;html=1;exitX=0.5;exitY=1;exitDx=0;exitDy=0;" edge="1" parent="1" source="ois-6ZQoZL2LTssRpP57-10" target="ois-6ZQoZL2LTssRpP57-15">
          <mxGeometry relative="1" as="geometry" />
        </mxCell>
        <mxCell id="ois-6ZQoZL2LTssRpP57-10" value="Search For Book" style="rounded=1;whiteSpace=wrap;html=1;" vertex="1" parent="1">
          <mxGeometry x="355" y="70" width="120" height="60" as="geometry" />
        </mxCell>
        <mxCell id="ois-6ZQoZL2LTssRpP57-16" style="edgeStyle=none;rounded=0;orthogonalLoop=1;jettySize=auto;html=1;exitX=0.112;exitY=0.46;exitDx=0;exitDy=0;exitPerimeter=0;entryX=0.5;entryY=0;entryDx=0;entryDy=0;" edge="1" parent="1" source="ois-6ZQoZL2LTssRpP57-15" target="ois-6ZQoZL2LTssRpP57-6">
          <mxGeometry relative="1" as="geometry" />
        </mxCell>
        <mxCell id="ois-6ZQoZL2LTssRpP57-17" style="edgeStyle=none;rounded=0;orthogonalLoop=1;jettySize=auto;html=1;exitX=0.354;exitY=0.78;exitDx=0;exitDy=0;exitPerimeter=0;entryX=0.5;entryY=0;entryDx=0;entryDy=0;" edge="1" parent="1" source="ois-6ZQoZL2LTssRpP57-15" target="ois-6ZQoZL2LTssRpP57-7">
          <mxGeometry relative="1" as="geometry" />
        </mxCell>
        <mxCell id="ois-6ZQoZL2LTssRpP57-18" style="edgeStyle=none;rounded=0;orthogonalLoop=1;jettySize=auto;html=1;exitX=0.642;exitY=0.62;exitDx=0;exitDy=0;exitPerimeter=0;entryX=0.5;entryY=0;entryDx=0;entryDy=0;" edge="1" parent="1" source="ois-6ZQoZL2LTssRpP57-15" target="ois-6ZQoZL2LTssRpP57-8">
          <mxGeometry relative="1" as="geometry" />
        </mxCell>
        <mxCell id="ois-6ZQoZL2LTssRpP57-19" style="edgeStyle=none;rounded=0;orthogonalLoop=1;jettySize=auto;html=1;exitX=0.886;exitY=0.78;exitDx=0;exitDy=0;exitPerimeter=0;entryX=0.5;entryY=0;entryDx=0;entryDy=0;" edge="1" parent="1" source="ois-6ZQoZL2LTssRpP57-15" target="ois-6ZQoZL2LTssRpP57-9">
          <mxGeometry relative="1" as="geometry" />
        </mxCell>
        <mxCell id="ois-6ZQoZL2LTssRpP57-15" value="" style="shape=line;html=1;strokeWidth=6;strokeColor=#ff0000;" vertex="1" parent="1">
          <mxGeometry x="270" y="168" width="270" height="10" as="geometry" />
        </mxCell>
        <mxCell id="ois-6ZQoZL2LTssRpP57-42" style="edgeStyle=none;rounded=0;orthogonalLoop=1;jettySize=auto;html=1;exitX=0.486;exitY=0.871;exitDx=0;exitDy=0;exitPerimeter=0;entryX=0.5;entryY=0;entryDx=0;entryDy=0;" edge="1" parent="1" source="ois-6ZQoZL2LTssRpP57-21" target="ois-6ZQoZL2LTssRpP57-26">
          <mxGeometry relative="1" as="geometry" />
        </mxCell>
        <mxCell id="ois-6ZQoZL2LTssRpP57-21" value="" style="shape=line;html=1;strokeWidth=6;strokeColor=#ff0000;" vertex="1" parent="1">
          <mxGeometry x="270" y="340" width="280" height="10" as="geometry" />
        </mxCell>
        <mxCell id="ois-6ZQoZL2LTssRpP57-46" style="edgeStyle=none;rounded=0;orthogonalLoop=1;jettySize=auto;html=1;exitX=0.5;exitY=1;exitDx=0;exitDy=0;entryX=0.5;entryY=0;entryDx=0;entryDy=0;" edge="1" parent="1" source="ois-6ZQoZL2LTssRpP57-26" target="ois-6ZQoZL2LTssRpP57-45">
          <mxGeometry relative="1" as="geometry">
            <mxPoint x="405.57142857142867" y="500" as="targetPoint" />
          </mxGeometry>
        </mxCell>
        <mxCell id="ois-6ZQoZL2LTssRpP57-26" value="Loan book" style="rounded=1;whiteSpace=wrap;html=1;" vertex="1" parent="1">
          <mxGeometry x="345" y="380" width="120" height="50" as="geometry" />
        </mxCell>
        <mxCell id="ois-6ZQoZL2LTssRpP57-52" value="[Book on Loan]" style="edgeStyle=none;rounded=0;orthogonalLoop=1;jettySize=auto;html=1;exitX=0.5;exitY=1;exitDx=0;exitDy=0;entryX=0.5;entryY=0;entryDx=0;entryDy=0;" edge="1" parent="1" source="ois-6ZQoZL2LTssRpP57-45" target="ois-6ZQoZL2LTssRpP57-47">
          <mxGeometry relative="1" as="geometry" />
        </mxCell>
        <mxCell id="ois-6ZQoZL2LTssRpP57-53" value="[Book Available]" style="edgeStyle=none;rounded=0;orthogonalLoop=1;jettySize=auto;html=1;exitX=1;exitY=0.5;exitDx=0;exitDy=0;entryX=1;entryY=0.5;entryDx=0;entryDy=0;" edge="1" parent="1" source="ois-6ZQoZL2LTssRpP57-45" target="ois-6ZQoZL2LTssRpP57-49">
          <mxGeometry x="-0.8266" relative="1" as="geometry">
            <Array as="points">
              <mxPoint x="800" y="545" />
              <mxPoint x="800" y="880" />
            </Array>
            <mxPoint x="1" as="offset" />
          </mxGeometry>
        </mxCell>
        <mxCell id="ois-6ZQoZL2LTssRpP57-45" value="" style="rhombus;whiteSpace=wrap;html=1;hachureGap=4;pointerEvents=0;" vertex="1" parent="1">
          <mxGeometry x="365" y="505" width="80" height="80" as="geometry" />
        </mxCell>
        <mxCell id="ois-6ZQoZL2LTssRpP57-55" style="edgeStyle=none;rounded=0;orthogonalLoop=1;jettySize=auto;html=1;exitX=0.5;exitY=1;exitDx=0;exitDy=0;entryX=0.5;entryY=0;entryDx=0;entryDy=0;" edge="1" parent="1" source="ois-6ZQoZL2LTssRpP57-47" target="ois-6ZQoZL2LTssRpP57-54">
          <mxGeometry relative="1" as="geometry" />
        </mxCell>
        <mxCell id="ois-6ZQoZL2LTssRpP57-47" value="Get Book" style="rounded=1;whiteSpace=wrap;html=1;" vertex="1" parent="1">
          <mxGeometry x="345" y="630" width="120" height="60" as="geometry" />
        </mxCell>
        <mxCell id="ois-6ZQoZL2LTssRpP57-61" style="edgeStyle=none;rounded=0;orthogonalLoop=1;jettySize=auto;html=1;exitX=0.5;exitY=1;exitDx=0;exitDy=0;entryX=0.5;entryY=0;entryDx=0;entryDy=0;" edge="1" parent="1" source="ois-6ZQoZL2LTssRpP57-49" target="ois-6ZQoZL2LTssRpP57-60">
          <mxGeometry relative="1" as="geometry" />
        </mxCell>
        <mxCell id="ois-6ZQoZL2LTssRpP57-49" value="" style="rhombus;whiteSpace=wrap;html=1;hachureGap=4;pointerEvents=0;" vertex="1" parent="1">
          <mxGeometry x="620" y="840" width="80" height="80" as="geometry" />
        </mxCell>
        <mxCell id="ois-6ZQoZL2LTssRpP57-57" value="[Book Checked In]" style="edgeStyle=none;rounded=0;orthogonalLoop=1;jettySize=auto;html=1;exitX=1;exitY=0.5;exitDx=0;exitDy=0;" edge="1" parent="1" source="ois-6ZQoZL2LTssRpP57-54" target="ois-6ZQoZL2LTssRpP57-56">
          <mxGeometry relative="1" as="geometry" />
        </mxCell>
        <mxCell id="ois-6ZQoZL2LTssRpP57-64" value="[Book doesn&#39;t come back]" style="edgeStyle=none;rounded=0;orthogonalLoop=1;jettySize=auto;html=1;exitX=0.5;exitY=1;exitDx=0;exitDy=0;entryX=0;entryY=0.5;entryDx=0;entryDy=0;" edge="1" parent="1" source="ois-6ZQoZL2LTssRpP57-54" target="ois-6ZQoZL2LTssRpP57-63">
          <mxGeometry x="-0.8476" y="5" relative="1" as="geometry">
            <Array as="points">
              <mxPoint x="405" y="1110" />
            </Array>
            <mxPoint as="offset" />
          </mxGeometry>
        </mxCell>
        <mxCell id="ois-6ZQoZL2LTssRpP57-54" value="" style="rhombus;whiteSpace=wrap;html=1;hachureGap=4;pointerEvents=0;" vertex="1" parent="1">
          <mxGeometry x="365" y="720" width="80" height="80" as="geometry" />
        </mxCell>
        <mxCell id="ois-6ZQoZL2LTssRpP57-58" style="edgeStyle=none;rounded=0;orthogonalLoop=1;jettySize=auto;html=1;exitX=0.5;exitY=1;exitDx=0;exitDy=0;entryX=0.5;entryY=0;entryDx=0;entryDy=0;" edge="1" parent="1" source="ois-6ZQoZL2LTssRpP57-56" target="ois-6ZQoZL2LTssRpP57-49">
          <mxGeometry relative="1" as="geometry" />
        </mxCell>
        <mxCell id="ois-6ZQoZL2LTssRpP57-56" value="Notify if book is Available" style="rounded=1;whiteSpace=wrap;html=1;" vertex="1" parent="1">
          <mxGeometry x="600" y="730" width="120" height="60" as="geometry" />
        </mxCell>
        <mxCell id="ois-6ZQoZL2LTssRpP57-62" style="edgeStyle=none;rounded=0;orthogonalLoop=1;jettySize=auto;html=1;exitX=0.5;exitY=1;exitDx=0;exitDy=0;entryX=0.5;entryY=0;entryDx=0;entryDy=0;" edge="1" parent="1" source="ois-6ZQoZL2LTssRpP57-60">
          <mxGeometry relative="1" as="geometry">
            <mxPoint x="660" y="1069.9999999999998" as="targetPoint" />
          </mxGeometry>
        </mxCell>
        <mxCell id="ois-6ZQoZL2LTssRpP57-60" value="Check out book" style="rounded=1;whiteSpace=wrap;html=1;" vertex="1" parent="1">
          <mxGeometry x="600" y="960" width="120" height="60" as="geometry" />
        </mxCell>
        <mxCell id="ois-6ZQoZL2LTssRpP57-66" style="edgeStyle=none;rounded=0;orthogonalLoop=1;jettySize=auto;html=1;exitX=0.5;exitY=1;exitDx=0;exitDy=0;entryX=0.5;entryY=0;entryDx=0;entryDy=0;" edge="1" parent="1" source="ois-6ZQoZL2LTssRpP57-63" target="ois-6ZQoZL2LTssRpP57-65">
          <mxGeometry relative="1" as="geometry" />
        </mxCell>
        <mxCell id="ois-6ZQoZL2LTssRpP57-63" value="" style="rhombus;whiteSpace=wrap;html=1;" vertex="1" parent="1">
          <mxGeometry x="620" y="1070" width="80" height="80" as="geometry" />
        </mxCell>
        <mxCell id="ois-6ZQoZL2LTssRpP57-65" value="" style="ellipse;html=1;shape=endState;fillColor=#000000;strokeColor=#ff0000;" vertex="1" parent="1">
          <mxGeometry x="645" y="1210" width="30" height="30" as="geometry" />
        </mxCell>
      </root>
    </mxGraphModel>
  </diagram>
</mxfile>
